<mxfile host="app.diagrams.net" modified="2023-09-13T06:24:41.105Z" agent="Mozilla/5.0 (Macintosh; Intel Mac OS X 10_15_7) AppleWebKit/537.36 (KHTML, like Gecko) Chrome/110.0.0.0 Safari/537.36" etag="8rO7-owcCLFisECzasCO" version="21.7.4" type="github">
  <diagram name="第 1 页" id="KjnWt2C1wSOg4n5B0rsV">
    <mxGraphModel dx="1482" dy="684" grid="1" gridSize="10" guides="1" tooltips="1" connect="1" arrows="1" fold="1" page="1" pageScale="1" pageWidth="827" pageHeight="1169" math="0" shadow="0">
      <root>
        <mxCell id="0" />
        <mxCell id="1" parent="0" />
        <mxCell id="uU2KtaDZSGd9mYO_BWjt-18" style="edgeStyle=orthogonalEdgeStyle;rounded=0;orthogonalLoop=1;jettySize=auto;html=1;exitX=1;exitY=0.5;exitDx=0;exitDy=0;entryX=0;entryY=0.5;entryDx=0;entryDy=0;" edge="1" parent="1" source="uU2KtaDZSGd9mYO_BWjt-1" target="uU2KtaDZSGd9mYO_BWjt-15">
          <mxGeometry relative="1" as="geometry" />
        </mxCell>
        <mxCell id="uU2KtaDZSGd9mYO_BWjt-1" value="" style="shape=document;whiteSpace=wrap;html=1;boundedLbl=1;" vertex="1" parent="1">
          <mxGeometry x="40" y="170" width="120" height="80" as="geometry" />
        </mxCell>
        <mxCell id="uU2KtaDZSGd9mYO_BWjt-2" value="&lt;font style=&quot;font-size: 18px;&quot;&gt;源文件&lt;/font&gt;" style="text;html=1;strokeColor=none;fillColor=none;align=center;verticalAlign=middle;whiteSpace=wrap;rounded=0;" vertex="1" parent="1">
          <mxGeometry x="70" y="260" width="60" height="30" as="geometry" />
        </mxCell>
        <mxCell id="uU2KtaDZSGd9mYO_BWjt-20" value="" style="edgeStyle=orthogonalEdgeStyle;rounded=0;orthogonalLoop=1;jettySize=auto;html=1;" edge="1" parent="1" source="uU2KtaDZSGd9mYO_BWjt-15" target="uU2KtaDZSGd9mYO_BWjt-19">
          <mxGeometry relative="1" as="geometry" />
        </mxCell>
        <mxCell id="uU2KtaDZSGd9mYO_BWjt-15" value="&lt;font style=&quot;font-size: 18px;&quot;&gt;lineRDD&lt;/font&gt;" style="rounded=1;whiteSpace=wrap;html=1;fillColor=#dae8fc;strokeColor=#6c8ebf;" vertex="1" parent="1">
          <mxGeometry x="294" y="180" width="120" height="60" as="geometry" />
        </mxCell>
        <mxCell id="uU2KtaDZSGd9mYO_BWjt-22" value="" style="edgeStyle=orthogonalEdgeStyle;rounded=0;orthogonalLoop=1;jettySize=auto;html=1;" edge="1" parent="1" source="uU2KtaDZSGd9mYO_BWjt-19" target="uU2KtaDZSGd9mYO_BWjt-21">
          <mxGeometry relative="1" as="geometry" />
        </mxCell>
        <mxCell id="uU2KtaDZSGd9mYO_BWjt-19" value="&lt;font style=&quot;font-size: 18px;&quot;&gt;wordRDD&lt;/font&gt;" style="whiteSpace=wrap;html=1;rounded=1;fillColor=#dae8fc;strokeColor=#6c8ebf;" vertex="1" parent="1">
          <mxGeometry x="520" y="180" width="120" height="60" as="geometry" />
        </mxCell>
        <mxCell id="uU2KtaDZSGd9mYO_BWjt-24" value="" style="edgeStyle=orthogonalEdgeStyle;rounded=0;orthogonalLoop=1;jettySize=auto;html=1;" edge="1" parent="1" source="uU2KtaDZSGd9mYO_BWjt-21" target="uU2KtaDZSGd9mYO_BWjt-23">
          <mxGeometry relative="1" as="geometry" />
        </mxCell>
        <mxCell id="uU2KtaDZSGd9mYO_BWjt-21" value="&lt;font style=&quot;font-size: 18px;&quot;&gt;cleanWorldRDD&lt;/font&gt;" style="whiteSpace=wrap;html=1;rounded=1;fillColor=#dae8fc;strokeColor=#6c8ebf;" vertex="1" parent="1">
          <mxGeometry x="760" y="180" width="140" height="60" as="geometry" />
        </mxCell>
        <mxCell id="uU2KtaDZSGd9mYO_BWjt-26" value="" style="edgeStyle=orthogonalEdgeStyle;rounded=0;orthogonalLoop=1;jettySize=auto;html=1;" edge="1" parent="1" source="uU2KtaDZSGd9mYO_BWjt-23" target="uU2KtaDZSGd9mYO_BWjt-25">
          <mxGeometry relative="1" as="geometry" />
        </mxCell>
        <mxCell id="uU2KtaDZSGd9mYO_BWjt-23" value="&lt;font style=&quot;font-size: 18px;&quot;&gt;kvRDD&lt;/font&gt;" style="whiteSpace=wrap;html=1;rounded=1;fillColor=#dae8fc;strokeColor=#6c8ebf;" vertex="1" parent="1">
          <mxGeometry x="1000" y="180" width="120" height="60" as="geometry" />
        </mxCell>
        <mxCell id="uU2KtaDZSGd9mYO_BWjt-25" value="&lt;font style=&quot;font-size: 18px;&quot;&gt;wordCounts&lt;/font&gt;" style="whiteSpace=wrap;html=1;rounded=1;fillColor=#dae8fc;strokeColor=#6c8ebf;" vertex="1" parent="1">
          <mxGeometry x="1240.5" y="180" width="120" height="60" as="geometry" />
        </mxCell>
        <mxCell id="uU2KtaDZSGd9mYO_BWjt-29" value="" style="endArrow=none;dashed=1;html=1;rounded=0;" edge="1" parent="1">
          <mxGeometry width="50" height="50" relative="1" as="geometry">
            <mxPoint x="220" y="210" as="sourcePoint" />
            <mxPoint x="220" y="130" as="targetPoint" />
          </mxGeometry>
        </mxCell>
        <mxCell id="uU2KtaDZSGd9mYO_BWjt-31" value="&lt;font style=&quot;font-size: 18px;&quot;&gt;textFile&lt;/font&gt;" style="text;html=1;strokeColor=none;fillColor=none;align=center;verticalAlign=middle;whiteSpace=wrap;rounded=0;" vertex="1" parent="1">
          <mxGeometry x="190" y="100" width="60" height="30" as="geometry" />
        </mxCell>
        <mxCell id="uU2KtaDZSGd9mYO_BWjt-32" value="" style="endArrow=none;dashed=1;html=1;rounded=0;" edge="1" parent="1">
          <mxGeometry width="50" height="50" relative="1" as="geometry">
            <mxPoint x="470" y="210" as="sourcePoint" />
            <mxPoint x="470" y="130" as="targetPoint" />
          </mxGeometry>
        </mxCell>
        <mxCell id="uU2KtaDZSGd9mYO_BWjt-33" value="&lt;font style=&quot;font-size: 18px;&quot;&gt;flatMap&lt;/font&gt;" style="text;html=1;strokeColor=none;fillColor=none;align=center;verticalAlign=middle;whiteSpace=wrap;rounded=0;" vertex="1" parent="1">
          <mxGeometry x="440" y="100" width="60" height="30" as="geometry" />
        </mxCell>
        <mxCell id="uU2KtaDZSGd9mYO_BWjt-35" value="" style="endArrow=none;dashed=1;html=1;rounded=0;" edge="1" parent="1">
          <mxGeometry width="50" height="50" relative="1" as="geometry">
            <mxPoint x="700" y="210" as="sourcePoint" />
            <mxPoint x="700" y="130" as="targetPoint" />
          </mxGeometry>
        </mxCell>
        <mxCell id="uU2KtaDZSGd9mYO_BWjt-39" value="&lt;font style=&quot;font-size: 18px;&quot;&gt;filter&lt;/font&gt;" style="text;html=1;strokeColor=none;fillColor=none;align=center;verticalAlign=middle;whiteSpace=wrap;rounded=0;" vertex="1" parent="1">
          <mxGeometry x="670" y="100" width="60" height="30" as="geometry" />
        </mxCell>
        <mxCell id="uU2KtaDZSGd9mYO_BWjt-40" value="" style="endArrow=none;dashed=1;html=1;rounded=0;" edge="1" parent="1">
          <mxGeometry width="50" height="50" relative="1" as="geometry">
            <mxPoint x="940" y="210" as="sourcePoint" />
            <mxPoint x="940" y="120" as="targetPoint" />
          </mxGeometry>
        </mxCell>
        <mxCell id="uU2KtaDZSGd9mYO_BWjt-41" value="&lt;font style=&quot;font-size: 18px;&quot;&gt;map&lt;/font&gt;" style="text;html=1;strokeColor=none;fillColor=none;align=center;verticalAlign=middle;whiteSpace=wrap;rounded=0;" vertex="1" parent="1">
          <mxGeometry x="910" y="90" width="60" height="30" as="geometry" />
        </mxCell>
        <mxCell id="uU2KtaDZSGd9mYO_BWjt-42" value="" style="endArrow=none;dashed=1;html=1;rounded=0;" edge="1" parent="1">
          <mxGeometry width="50" height="50" relative="1" as="geometry">
            <mxPoint x="1180" y="210" as="sourcePoint" />
            <mxPoint x="1180" y="120" as="targetPoint" />
          </mxGeometry>
        </mxCell>
        <mxCell id="uU2KtaDZSGd9mYO_BWjt-43" value="&lt;font style=&quot;font-size: 18px;&quot;&gt;reduceByKey&lt;/font&gt;" style="text;html=1;strokeColor=none;fillColor=none;align=center;verticalAlign=middle;whiteSpace=wrap;rounded=0;" vertex="1" parent="1">
          <mxGeometry x="1150" y="90" width="60" height="30" as="geometry" />
        </mxCell>
      </root>
    </mxGraphModel>
  </diagram>
</mxfile>
